<svg width="50" height="13" viewBox="0 0 155 25" fill="none" xmlns="http://www.w3.org/2000/svg">
<g clip-path="url(#clip0_449_6830)">
<path d="M15.2906 16.7672H17.4667C17.6546 14.5882 17.4325 12.6936 16.8005 11.0833C16.1685 9.47307 15.1949 8.22255 13.8763 7.33178C12.5577 6.44443 10.9555 5.99904 9.07324 5.99904C7.30027 5.99904 5.73226 6.40331 4.36923 7.20844C3.00619 8.01357 1.93694 9.14417 1.16148 10.6002C0.386023 12.0563 0 13.7659 0 15.7325C0 17.5312 0.396271 19.1311 1.18881 20.5256C1.98135 21.92 3.07793 23.0163 4.47854 23.8077C5.87916 24.6026 7.50182 25 9.33969 25C11.0683 25 12.6602 24.5443 14.1189 23.633C15.5775 22.7217 16.6434 21.4437 17.3164 19.7992L12.7968 18.4973C12.4655 19.2305 11.9838 19.7924 11.3518 20.1795C10.7198 20.5667 9.96143 20.762 9.07665 20.762C7.66921 20.762 6.60338 20.3029 5.87916 19.3881C5.34966 18.7166 5.01829 17.8395 4.87482 16.7637H15.294L15.2906 16.7672ZM9.27479 9.93216C10.5934 9.93216 11.5431 10.3364 12.1238 11.1416C12.503 11.6692 12.7456 12.4366 12.8788 13.3993H5.00121C5.17885 12.5737 5.46239 11.8747 5.87574 11.3403C6.59996 10.4015 7.73411 9.93216 9.27479 9.93216Z" fill="white"/>
<path d="M34.9816 11.2683C34.9133 10.6002 34.7049 9.93559 34.3497 9.2675C33.7177 8.06838 32.7885 7.22214 31.5587 6.73222C30.3289 6.24229 28.9214 5.99904 27.3363 5.99904C25.1774 5.99904 23.4693 6.46498 22.219 7.4003C20.9687 8.33219 20.1146 9.54502 19.6603 11.0319L23.7494 12.3338C24.0364 11.5116 24.542 10.9394 25.2628 10.6174C25.9836 10.2953 26.677 10.1343 27.3398 10.1343C28.5354 10.1343 29.3894 10.3844 29.8984 10.8846C30.2981 11.2752 30.5338 11.8473 30.6227 12.5874C29.8643 12.7004 29.1332 12.8101 28.4534 12.9128C27.2919 13.0841 26.25 13.2657 25.3277 13.4542C24.4053 13.6426 23.6162 13.8584 22.95 14.1051C21.9867 14.4614 21.2181 14.9034 20.6476 15.431C20.0771 15.9586 19.6637 16.5685 19.4109 17.2571C19.1547 17.9457 19.0283 18.7063 19.0283 19.5388C19.0283 20.5393 19.2572 21.454 19.7184 22.2797C20.1796 23.1088 20.8525 23.77 21.7476 24.2634C22.6392 24.7567 23.7289 25.0034 25.0134 25.0034C26.5643 25.0034 27.8453 24.7328 28.8599 24.1949C29.6593 23.77 30.4143 23.1259 31.1282 22.2831V24.5032H35.0841V13.5021C35.0841 12.6799 35.05 11.9364 34.9851 11.2683H34.9816ZM30.1307 19.0352C30.0078 19.2922 29.7789 19.6074 29.4407 19.9842C29.1025 20.3611 28.6481 20.7003 28.0776 20.9915C27.5072 21.2861 26.8068 21.4335 25.9767 21.4335C25.4541 21.4335 25.0065 21.3547 24.6308 21.2005C24.255 21.0463 23.9646 20.8202 23.7597 20.5256C23.5547 20.2309 23.4522 19.878 23.4522 19.4669C23.4522 19.1654 23.5171 18.8947 23.6435 18.6481C23.7699 18.4048 23.9715 18.1787 24.2413 17.9731C24.5112 17.7676 24.8699 17.5757 25.314 17.3976C25.7 17.2537 26.1509 17.12 26.66 16.9967C27.169 16.8734 27.8385 16.7398 28.6721 16.589C29.2016 16.4931 29.8506 16.38 30.5885 16.2567C30.5783 16.5753 30.5646 16.9213 30.5407 17.3222C30.5031 17.9731 30.3665 18.5419 30.1342 19.0318L30.1307 19.0352Z" fill="white"/>
<path d="M46.3053 25C44.4435 25 42.8481 24.582 41.5193 23.7495C40.1904 22.917 39.169 21.7829 38.4618 20.3474C37.7513 18.9153 37.3994 17.2982 37.3994 15.4995C37.3994 13.7008 37.7684 12.0495 38.5062 10.6139C39.2441 9.18185 40.2826 8.05468 41.6217 7.229C42.9609 6.40674 44.546 5.99561 46.3736 5.99561C48.4882 5.99561 50.2646 6.53351 51.6993 7.60586C53.1341 8.67822 54.0496 10.1412 54.4493 11.9981L49.9298 13.1972C49.6633 12.2653 49.2021 11.5356 48.5428 11.0148C47.8835 10.4906 47.1388 10.2302 46.3087 10.2302C45.3556 10.2302 44.5733 10.4598 43.9652 10.9223C43.3571 11.3848 42.9062 12.0118 42.6193 12.8066C42.3323 13.6015 42.1854 14.4991 42.1854 15.4995C42.1854 17.0652 42.5304 18.3363 43.2239 19.3059C43.9174 20.2789 44.9456 20.7654 46.3053 20.7654C47.3233 20.7654 48.0987 20.5324 48.6316 20.0665C49.1646 19.6005 49.5608 18.9324 49.8273 18.0656L54.4459 19.0318C53.9369 20.9435 52.9735 22.4167 51.5558 23.448C50.1382 24.4827 48.3857 24.9966 46.3053 24.9966V25Z" fill="white"/>
<path d="M73.4226 12.9677C73.3782 12.3133 73.2518 11.587 73.04 10.7921C72.8282 9.99726 72.4763 9.23325 71.9844 8.50007C71.4925 7.76689 70.8024 7.16048 69.9142 6.68425C69.0295 6.20803 67.8816 5.96821 66.4742 5.96821C64.7115 5.96821 63.2528 6.35193 62.0947 7.11594C61.5481 7.47568 61.0733 7.89708 60.6565 8.36303V0.503632L56.6357 1.22996V24.5032H61.2236V15.3693C61.2236 14.2456 61.35 13.3479 61.5994 12.6696C61.8488 11.9912 62.1665 11.4773 62.5559 11.1279C62.9419 10.7784 63.3587 10.542 63.8028 10.4187C64.2469 10.2953 64.6602 10.2337 65.0497 10.2337C66.013 10.2337 66.7577 10.4495 67.2838 10.8846C67.8099 11.3163 68.1891 11.8576 68.4214 12.5017C68.6537 13.1458 68.7937 13.7865 68.8382 14.4272C68.8826 15.0678 68.9065 15.592 68.9065 16.0032V24.5032H73.4943V14.4032C73.4943 14.1017 73.4704 13.6255 73.426 12.9711L73.4226 12.9677Z" fill="white"/>
<path d="M117.604 11.2683C117.539 10.6002 117.327 9.93559 116.972 9.2675C116.34 8.06838 115.411 7.22214 114.181 6.73222C112.951 6.24229 111.543 5.99904 109.958 5.99904C107.799 5.99904 106.091 6.46498 104.841 7.4003C103.587 8.33219 102.737 9.54502 102.282 11.0319L106.371 12.3338C106.658 11.5116 107.164 10.9394 107.885 10.6174C108.606 10.2953 109.296 10.1343 109.962 10.1343C111.157 10.1343 112.012 10.3844 112.521 10.8846C112.92 11.2752 113.156 11.8473 113.245 12.5874C112.486 12.7004 111.755 12.8101 111.075 12.9128C109.911 13.0841 108.872 13.2657 107.95 13.4542C107.027 13.6426 106.238 13.8584 105.572 14.1051C104.609 14.4614 103.84 14.9034 103.27 15.431C102.699 15.9586 102.286 16.5685 102.033 17.2571C101.777 17.9457 101.65 18.7063 101.65 19.5388C101.65 20.5393 101.879 21.454 102.34 22.2797C102.798 23.1088 103.475 23.77 104.366 24.2634C105.258 24.7567 106.348 25.0034 107.632 25.0034C109.183 25.0034 110.464 24.7328 111.479 24.1949C112.278 23.77 113.033 23.1259 113.747 22.2831V24.5032H117.703V13.5021C117.703 12.6799 117.669 11.9364 117.604 11.2683ZM112.749 19.0352C112.626 19.2922 112.398 19.6074 112.059 19.9842C111.721 20.3611 111.267 20.7003 110.696 20.9915C110.126 21.2861 109.426 21.4335 108.595 21.4335C108.076 21.4335 107.625 21.3547 107.249 21.2005C106.874 21.0463 106.583 20.8202 106.378 20.5256C106.173 20.2309 106.071 19.878 106.071 19.4669C106.071 19.1654 106.136 18.8947 106.262 18.6481C106.389 18.4048 106.59 18.1787 106.86 17.9731C107.13 17.7676 107.489 17.5757 107.933 17.3976C108.319 17.2537 108.77 17.12 109.279 16.9967C109.788 16.8734 110.457 16.7398 111.291 16.589C111.82 16.4931 112.469 16.38 113.207 16.2567C113.197 16.5753 113.183 16.9213 113.159 17.3222C113.122 17.9731 112.985 18.5419 112.753 19.0318L112.749 19.0352Z" fill="white"/>
<path d="M147.487 25C145.226 25 143.402 24.4861 142.011 23.4583C140.621 22.4304 139.777 20.9778 139.477 19.1003L144.095 18.4014C144.283 19.2476 144.703 19.9054 145.349 20.3851C145.998 20.8647 146.821 21.1011 147.815 21.1011C148.635 21.1011 149.267 20.9435 149.711 20.6249C150.155 20.3063 150.377 19.8678 150.377 19.299C150.377 18.9427 150.289 18.6584 150.111 18.4425C149.933 18.2267 149.537 18.0108 148.922 17.8018C148.307 17.5928 147.351 17.3119 146.056 16.9693C144.594 16.5924 143.426 16.1676 142.551 15.7017C141.677 15.2357 141.045 14.6773 140.655 14.0263C140.269 13.3754 140.074 12.5908 140.074 11.6692C140.074 10.5146 140.368 9.51076 140.956 8.66109C141.543 7.81143 142.37 7.15705 143.439 6.69453C144.509 6.23544 145.769 6.00246 147.221 6.00246C148.673 6.00246 149.875 6.21831 150.962 6.65342C152.048 7.08853 152.926 7.70522 153.595 8.50349C154.265 9.30519 154.678 10.2474 154.832 11.3368L150.213 12.1694C150.135 11.5013 149.848 10.9771 149.349 10.5865C148.85 10.1994 148.174 9.96985 147.323 9.90475C146.493 9.84994 145.824 9.95957 145.322 10.2371C144.816 10.5146 144.567 10.9154 144.567 11.4362C144.567 11.748 144.676 12.0084 144.891 12.2208C145.106 12.4298 145.557 12.649 146.237 12.8717C146.917 13.0944 147.959 13.3822 149.353 13.7385C150.716 14.0948 151.809 14.5094 152.635 14.9788C153.459 15.4516 154.063 16.0169 154.439 16.6781C154.815 17.3393 155.003 18.1376 155.003 19.0695C155.003 20.9127 154.337 22.3654 153.008 23.4206C151.679 24.4758 149.838 25.0034 147.491 25.0034L147.487 25Z" fill="white"/>
<path d="M94.4521 0.815404V24.4998H98.9717V0L94.4521 0.815404Z" fill="white"/>
<path d="M137.013 10.6071C136.31 9.17843 135.319 8.05468 134.048 7.23242C132.774 6.41017 131.278 5.99904 129.563 5.99904C127.971 5.99904 126.628 6.37591 125.508 7.10223V0.503632L120.954 1.32589V24.5032H124.944V23.4446C125.071 23.5473 125.19 23.6604 125.327 23.7529C126.522 24.5854 128.012 25.0034 129.798 25.0034C131.448 25.0034 132.893 24.5854 134.137 23.7529C135.377 22.9204 136.344 21.7864 137.037 20.3508C137.731 18.9187 138.076 17.3016 138.076 15.5029C138.076 13.7043 137.724 12.0392 137.02 10.6105L137.013 10.6071ZM132.835 18.2575C132.538 19.0866 132.077 19.7444 131.455 20.2309C130.834 20.7208 130.038 20.9641 129.064 20.9641C128.09 20.9641 127.25 20.738 126.645 20.2823C126.041 19.8266 125.607 19.1894 125.34 18.3637C125.074 17.5415 124.941 16.5856 124.941 15.4961C124.941 14.4066 125.074 13.4507 125.34 12.6285C125.607 11.8062 126.03 11.169 126.611 10.7133C127.192 10.2576 127.954 10.0281 128.897 10.0281C129.904 10.0281 130.734 10.2748 131.38 10.7681C132.029 11.2615 132.507 11.9227 132.818 12.7518C133.129 13.5775 133.283 14.4923 133.283 15.4927C133.283 16.4931 133.133 17.4215 132.835 18.2507V18.2575Z" fill="white"/>
<path d="M77.3203 22.499V17.9663H81.8399V22.499H77.3203ZM77.3511 13.0328V8.50007H81.8706V13.0328H77.3511Z" fill="#FF3C15"/>
<path d="M86.0693 22.499V17.9663H90.5889V22.499H86.0693ZM86.1035 13.0328V8.50007H90.623V13.0328H86.1035Z" fill="#FF3C15"/>
</g>
<defs>
<clipPath id="clip0_449_6830">
<rect width="155" height="25" fill="white"/>
</clipPath>
</defs>
</svg>
